<svg width="96" height="96" viewBox="0 0 96 96" fill="none" xmlns="http://www.w3.org/2000/svg">
<path opacity="0.9" d="M78.7206 48.0006V81.0673C78.7206 84.0128 76.3328 86.4006 73.3873 86.4006H22.6139C19.6684 86.4006 17.2806 84.0128 17.2806 81.0673V48.0006M48.0006 86.4006V28.8006M48.0006 28.8006H30.7206C28.1745 28.8006 25.7327 27.7892 23.9324 25.9888C22.132 24.1885 21.1206 21.7467 21.1206 19.2006C21.1206 16.6545 22.132 14.2127 23.9324 12.4124C25.7327 10.612 28.1745 9.60059 30.7206 9.60059C44.1606 9.60059 48.0006 28.8006 48.0006 28.8006ZM48.0006 28.8006H65.2806C67.8267 28.8006 70.2685 27.7892 72.0688 25.9888C73.8692 24.1885 74.8806 21.7467 74.8806 19.2006C74.8806 16.6545 73.8692 14.2127 72.0688 12.4124C70.2685 10.612 67.8267 9.60059 65.2806 9.60059C51.8406 9.60059 48.0006 28.8006 48.0006 28.8006ZM14.9339 48.0006H81.0673C84.0128 48.0006 86.4006 45.6128 86.4006 42.6673V34.1339C86.4006 31.1884 84.0128 28.8006 81.0673 28.8006H14.9339C11.9884 28.8006 9.60059 31.1884 9.60059 34.1339V42.6673C9.60059 45.6128 11.9884 48.0006 14.9339 48.0006Z" stroke="white" stroke-width="2.66667" stroke-linecap="round" stroke-linejoin="round"/>
</svg>
