<svg width="96" height="96" viewBox="0 0 96 96" fill="none" xmlns="http://www.w3.org/2000/svg">
<g opacity="0.9">
<path d="M50.3827 8.08789L50.4749 6.75775L48.6674 6.63246L49.0853 8.3954L50.3827 8.08789ZM84.8032 33.982L85.2633 35.2335L86.5128 34.7741L86.0553 33.5238L84.8032 33.982ZM50.6036 9.02018L49.3063 9.32769V9.32769L50.6036 9.02018ZM51.2521 10.2281L50.2789 11.1395L50.2789 11.1395L51.2521 10.2281ZM52.6625 11.7339L51.6893 12.6454V12.6454L52.6625 11.7339ZM53.222 14.4689L54.4749 14.9249V14.9249L53.222 14.4689ZM52.6486 16.0444L51.3956 15.5884L51.3956 15.5884L52.6486 16.0444ZM54.2423 19.4623L54.6984 18.2094L54.6984 18.2094L54.2423 19.4623ZM55.3191 19.8542L54.8631 21.1071L54.8631 21.1071L55.3191 19.8542ZM57.0584 22.6455L55.7327 22.5028L57.0584 22.6455ZM56.5336 27.5199L57.8593 27.6626V27.6626L56.5336 27.5199ZM57.2387 29.6283L56.2655 30.5397L56.2655 30.5397L57.2387 29.6283ZM61.4186 34.0912L60.4454 35.0026V35.0026L61.4186 34.0912ZM63.8877 34.8832L63.6263 33.5758H63.6263L63.8877 34.8832ZM73.2636 33.0088L73.525 34.3162L73.525 34.3162L73.2636 33.0088ZM74.1824 32.9866L73.9844 34.3051H73.9844L74.1824 32.9866ZM82.9701 34.3063L83.1681 32.9877L82.9701 34.3063ZM84.2863 34.1721L84.7464 35.4235L84.2863 34.1721ZM25.6037 80.5234L24.862 81.6314L25.5764 82.1095L26.3067 81.6563L25.6037 80.5234ZM28.6114 12.8351L29.5198 11.8591L28.8153 11.2033L27.971 11.6656L28.6114 12.8351ZM31.577 15.5954L32.4854 14.6194L32.4854 14.6194L31.577 15.5954ZM32.1093 16.2854L33.2839 15.6544V15.6544L32.1093 16.2854ZM34.0276 19.8563L32.853 20.4873L32.8936 20.5629L32.9436 20.6327L34.0276 19.8563ZM37.7834 25.1L36.6994 25.8764L36.6994 25.8764L37.7834 25.1ZM38.4382 32.1723L37.183 32.6218L37.183 32.6218L38.4382 32.1723ZM39.6828 35.6475L38.4276 36.0971L38.4276 36.0971L39.6828 35.6475ZM38.5783 38.8125L39.2813 39.9454L38.5783 38.8125ZM34.2483 41.4993L33.5453 40.3664L33.5452 40.3664L34.2483 41.4993ZM33.8374 41.8132L32.929 40.8373V40.8373L33.8374 41.8132ZM29.773 45.5963L28.8646 44.6203L29.773 45.5963ZM24.5661 50.4427L23.6577 49.4667H23.6577L24.5661 50.4427ZM23.8076 53.0864L25.0953 52.7406H25.0953L23.8076 53.0864ZM25.32 58.7173L24.0323 59.0632V59.0632L25.32 58.7173ZM26.0785 59.9776L26.987 59.0016L26.987 59.0016L26.0785 59.9776ZM29.2981 62.9742L30.2065 61.9982L30.2065 61.9982L29.2981 62.9742ZM29.9918 64.0271L31.247 63.5776L31.247 63.5776L29.9918 64.0271ZM31.9003 69.3563L30.645 69.8058L31.9003 69.3563ZM33.301 73.2675L32.0457 73.717L33.301 73.2675ZM32.1965 76.4325L31.4935 75.2995L31.4935 75.2995L32.1965 76.4325ZM45.7799 52.8282L44.883 51.8416L45.7799 52.8282ZM50.4445 48.5876L51.3414 49.5742L51.3414 49.5742L50.4445 48.5876ZM45.4233 56.3783L44.3481 57.1668V57.1668L45.4233 56.3783ZM48.3877 60.4207L47.3125 61.2092L48.3877 60.4207ZM48.8717 62.4116L47.5545 62.2047V62.2047L48.8717 62.4116ZM47.8912 68.6508L49.2084 68.8577V68.8577L47.8912 68.6508ZM48.0219 69.9827L46.7701 70.4417L46.7701 70.4417L48.0219 69.9827ZM48.1073 70.2156L49.3591 69.7566L49.3591 69.7566L48.1073 70.2156ZM51.579 71.7823L51.095 70.54L51.095 70.54L51.579 71.7823ZM57.0736 69.6416L56.5895 68.3992H56.5895L57.0736 69.6416ZM58.3311 68.6258L59.4439 69.3602V69.3602L58.3311 68.6258ZM61.5168 63.799L62.6296 64.5334L62.6296 64.5334L61.5168 63.799ZM61.8022 63.4385L60.8321 62.5238L60.8321 62.5238L61.8022 63.4385ZM67.0609 57.8611L66.0908 56.9464L66.0908 56.9464L67.0609 57.8611ZM66.6229 53.8284L67.374 52.7268L67.374 52.7268L66.6229 53.8284ZM64.1639 52.1519L64.915 51.0502L64.8855 51.0301L64.855 51.0116L64.1639 52.1519ZM60.7536 50.085L61.4446 48.9447L61.4446 48.9447L60.7536 50.085ZM59.9624 49.7651L60.2579 48.465L60.2579 48.465L59.9624 49.7651ZM55.3439 48.7155L54.9572 49.9915L55.0024 50.0052L55.0484 50.0157L55.3439 48.7155ZM53.0117 48.0088L52.625 49.2848H52.625L53.0117 48.0088ZM50.2905 9.41803C65.627 10.4811 78.4803 20.5845 83.551 34.4403L86.0553 33.5238C80.6323 18.7056 66.8879 7.89547 50.4749 6.75775L50.2905 9.41803ZM49.0853 8.3954L49.3063 9.32769L51.901 8.71267L51.6801 7.78038L49.0853 8.3954ZM49.3063 9.32769C49.4671 10.0061 49.8024 10.6307 50.2789 11.1395L52.2253 9.31661C52.0664 9.14699 51.9546 8.93879 51.901 8.71266L49.3063 9.32769ZM50.2789 11.1395L51.6893 12.6454L53.6356 10.8225L52.2253 9.3166L50.2789 11.1395ZM51.6893 12.6454C52.0328 13.0121 52.1409 13.5407 51.9691 14.0128L54.4749 14.9249C54.9905 13.5085 54.666 11.9226 53.6356 10.8225L51.6893 12.6454ZM51.9691 14.0128L51.3956 15.5884L53.9015 16.5004L54.4749 14.9249L51.9691 14.0128ZM51.3956 15.5884C50.6401 17.6643 51.7104 19.9597 53.7863 20.7152L54.6984 18.2094C54.0064 17.9575 53.6496 17.1924 53.9015 16.5004L51.3956 15.5884ZM53.7863 20.7152L54.8631 21.1071L55.7751 18.6013L54.6984 18.2094L53.7863 20.7152ZM54.8631 21.1071C55.4395 21.3169 55.7984 21.8929 55.7327 22.5028L58.384 22.7882C58.581 20.9586 57.5043 19.2307 55.7751 18.6013L54.8631 21.1071ZM55.7327 22.5028L55.208 27.3772L57.8593 27.6626L58.384 22.7882L55.7327 22.5028ZM55.208 27.3772C55.0833 28.5351 55.4694 29.6897 56.2655 30.5397L58.2118 28.7168C57.9465 28.4335 57.8177 28.0486 57.8593 27.6626L55.208 27.3772ZM56.2655 30.5397L60.4454 35.0026L62.3918 33.1797L58.2118 28.7168L56.2655 30.5397ZM60.4454 35.0026C61.3914 36.0126 62.7922 36.462 64.1491 36.1907L63.6263 33.5758C63.174 33.6662 62.7071 33.5164 62.3918 33.1797L60.4454 35.0026ZM64.1491 36.1907L73.525 34.3162L73.0022 31.7013L63.6263 33.5758L64.1491 36.1907ZM73.525 34.3162C73.6763 34.286 73.8317 34.2822 73.9844 34.3051L74.3804 31.668C73.9225 31.5993 73.4562 31.6105 73.0022 31.7013L73.525 34.3162ZM73.9844 34.3051L82.7721 35.6248L83.1681 32.9877L74.3804 31.668L73.9844 34.3051ZM82.7721 35.6248C83.4366 35.7246 84.1156 35.6554 84.7464 35.4235L83.8262 32.9206C83.616 32.9979 83.3896 33.021 83.1681 32.9877L82.7721 35.6248ZM84.7464 35.4235L85.2633 35.2335L84.3431 32.7306L83.8262 32.9206L84.7464 35.4235ZM26.3454 79.4154C16.0868 72.5484 9.33724 60.8581 9.33724 47.5919H6.67057C6.67057 61.7852 13.8955 74.2905 24.862 81.6314L26.3454 79.4154ZM9.33724 47.5919C9.33724 33.1099 17.3815 20.5048 29.2518 14.0046L27.971 11.6656C15.2806 18.6149 6.67057 32.097 6.67057 47.5919H9.33724ZM32.4854 14.6194L29.5198 11.8591L27.703 13.8111L30.6686 16.5713L32.4854 14.6194ZM33.2839 15.6544C33.0763 15.2679 32.8065 14.9183 32.4854 14.6194L30.6686 16.5713C30.7756 16.671 30.8655 16.7875 30.9347 16.9164L33.2839 15.6544ZM35.2021 19.2253L33.2839 15.6544L30.9347 16.9164L32.853 20.4873L35.2021 19.2253ZM38.8673 24.3236L35.1115 19.0799L32.9436 20.6327L36.6994 25.8764L38.8673 24.3236ZM39.6154 26.6528C39.6154 25.8173 39.3538 25.0028 38.8673 24.3236L36.6994 25.8764C36.8616 26.1028 36.9488 26.3743 36.9488 26.6528H39.6154ZM39.6154 31.2732V26.6528H36.9488V31.2732H39.6154ZM39.6935 31.7227C39.6418 31.5785 39.6154 31.4264 39.6154 31.2732H36.9488C36.9488 31.7328 37.028 32.1891 37.183 32.6218L39.6935 31.7227ZM40.9381 35.198L39.6935 31.7227L37.183 32.6218L38.4276 36.0971L40.9381 35.198ZM39.2813 39.9454C40.8835 38.9513 41.5738 36.9732 40.9381 35.198L38.4276 36.0971C38.6395 36.6888 38.4094 37.3481 37.8753 37.6795L39.2813 39.9454ZM34.9513 42.6323L39.2813 39.9454L37.8753 37.6795L33.5453 40.3664L34.9513 42.6323ZM34.7459 42.7892C34.8091 42.7304 34.8779 42.6778 34.9513 42.6323L33.5452 40.3664C33.3251 40.503 33.1187 40.6607 32.929 40.8373L34.7459 42.7892ZM30.6814 46.5723L34.7459 42.7892L32.929 40.8373L28.8646 44.6203L30.6814 46.5723ZM25.4745 51.4187L30.6814 46.5723L28.8646 44.6203L23.6577 49.4667L25.4745 51.4187ZM25.0953 52.7406C24.9672 52.2637 25.1131 51.7551 25.4745 51.4187L23.6577 49.4667C22.5734 50.4759 22.1356 52.0017 22.5199 53.4323L25.0953 52.7406ZM26.6077 58.3715L25.0953 52.7406L22.5199 53.4323L24.0323 59.0632L26.6077 58.3715ZM26.987 59.0016C26.804 58.8313 26.6725 58.6129 26.6077 58.3715L24.0323 59.0632C24.2269 59.7875 24.6211 60.4426 25.1701 60.9536L26.987 59.0016ZM30.2065 61.9982L26.987 59.0016L25.1701 60.9536L28.3897 63.9502L30.2065 61.9982ZM31.247 63.5776C31.0314 62.9755 30.6746 62.4339 30.2065 61.9982L28.3897 63.9502C28.5457 64.0955 28.6646 64.276 28.7365 64.4767L31.247 63.5776ZM33.1556 68.9067L31.247 63.5776L28.7365 64.4767L30.645 69.8058L33.1556 68.9067ZM34.5563 72.818L33.1556 68.9067L30.645 69.8058L32.0457 73.717L34.5563 72.818ZM32.8995 77.5654C34.5017 76.5713 35.192 74.5931 34.5563 72.818L32.0457 73.717C32.2577 74.3088 32.0275 74.9681 31.4935 75.2995L32.8995 77.5654ZM26.3067 81.6563L32.8995 77.5654L31.4935 75.2995L24.9007 79.3904L26.3067 81.6563ZM46.6768 53.8148L51.3414 49.5742L49.5476 47.6011L44.883 51.8416L46.6768 53.8148ZM46.4985 55.5898C46.0951 55.0397 46.172 54.2737 46.6768 53.8148L44.883 51.8416C43.3686 53.2184 43.1377 55.5163 44.3481 57.1668L46.4985 55.5898ZM49.4629 59.6322L46.4985 55.5898L44.3481 57.1668L47.3125 61.2092L49.4629 59.6322ZM50.1888 62.6186C50.3542 61.5662 50.0929 60.4913 49.4629 59.6322L47.3125 61.2092C47.5225 61.4956 47.6096 61.8539 47.5545 62.2047L50.1888 62.6186ZM49.2084 68.8577L50.1888 62.6186L47.5545 62.2047L46.5741 68.4438L49.2084 68.8577ZM49.2737 69.5237C49.1957 69.3109 49.1732 69.0817 49.2084 68.8577L46.5741 68.4438C46.4685 69.1156 46.5359 69.8032 46.7701 70.4417L49.2737 69.5237ZM49.3591 69.7566L49.2737 69.5237L46.7701 70.4417L46.8554 70.6746L49.3591 69.7566ZM51.095 70.54C50.3991 70.8111 49.6162 70.4578 49.3591 69.7566L46.8554 70.6746C47.6268 72.7782 49.9754 73.8381 52.0631 73.0247L51.095 70.54ZM56.5895 68.3992L51.095 70.54L52.0631 73.0247L57.5576 70.884L56.5895 68.3992ZM57.2183 67.8913C57.0663 68.1216 56.8466 68.2991 56.5895 68.3992L57.5576 70.884C58.3289 70.5835 58.988 70.0511 59.4439 69.3602L57.2183 67.8913ZM60.404 63.0645L57.2183 67.8913L59.4439 69.3602L62.6296 64.5334L60.404 63.0645ZM60.8321 62.5238C60.6741 62.6914 60.5309 62.8723 60.404 63.0645L62.6296 64.5334C62.6719 64.4694 62.7197 64.4091 62.7723 64.3532L60.8321 62.5238ZM66.0908 56.9464L60.8321 62.5238L62.7723 64.3532L68.031 58.7758L66.0908 56.9464ZM65.8718 54.9301C66.5492 55.3919 66.6532 56.3499 66.0908 56.9464L68.031 58.7758C69.7183 56.9863 69.4061 54.1123 67.374 52.7268L65.8718 54.9301ZM63.4128 53.2535L65.8718 54.9301L67.374 52.7268L64.915 51.0502L63.4128 53.2535ZM60.0625 51.2252L63.4728 53.2921L64.855 51.0116L61.4446 48.9447L60.0625 51.2252ZM59.6669 51.0653C59.8065 51.097 59.9401 51.151 60.0625 51.2252L61.4446 48.9447C61.0774 48.7221 60.6767 48.5601 60.2579 48.465L59.6669 51.0653ZM55.0484 50.0157L59.6669 51.0653L60.2579 48.465L55.6394 47.4153L55.0484 50.0157ZM52.625 49.2848L54.9572 49.9915L55.7306 47.4395L53.3984 46.7327L52.625 49.2848ZM51.3414 49.5742C51.6886 49.2586 52.176 49.1487 52.625 49.2848L53.3984 46.7327C52.0514 46.3246 50.5891 46.6543 49.5476 47.6011L51.3414 49.5742Z" fill="white"/>
<circle cx="47.6039" cy="47.5922" r="39.6" stroke="white" stroke-width="2.66667"/>
</g>
</svg>
