<svg width="216" height="34" viewBox="0 0 216 34" fill="none" xmlns="http://www.w3.org/2000/svg">
<g clip-path="url(#clip0_1_11726)">
<path d="M30.2284 9.60889C33.0665 9.60889 35.4325 11.0585 36.5343 12.625V10.0002H40.8691V29.5828H37.9251C37.1571 29.5828 36.5343 28.965 36.5343 28.2008V26.9606C35.4325 28.5258 33.0665 29.9743 30.2284 29.9743C24.831 29.9743 20.731 25.393 20.731 19.7921C20.731 14.1913 24.831 9.60889 30.2284 9.60889ZM31.017 13.5261C27.5089 13.5261 25.144 16.2669 25.144 19.7921C25.144 23.3163 27.5089 26.0589 31.017 26.0589C34.524 26.0589 36.89 23.3163 36.89 19.7921C36.89 16.2669 34.5242 13.5261 31.017 13.5261Z" fill="#77C159"/>
<path d="M45.7925 10.0012H50.1283V12.6642C51.3096 10.7066 53.557 9.60986 56.1188 9.60986C60.6896 9.60986 63.6462 12.8214 63.6462 17.7957V29.5831H60.7012C59.9334 29.5831 59.3104 28.9642 59.3104 28.2012V18.5007C59.3104 15.407 57.7332 13.527 55.2127 13.527C52.3355 13.527 50.1285 15.7594 50.1285 19.9492V29.5831H47.1822C46.4155 29.5831 45.7925 28.9642 45.7925 28.2012V10.0012Z" fill="#77C159"/>
<path d="M76.5731 9.60887C79.41 9.60887 81.776 11.0584 82.879 12.625V0.209961H87.2126V29.5828H84.2687C83.502 29.5828 82.879 28.965 82.879 28.2008V26.9606C81.776 28.5258 79.41 29.9743 76.5731 29.9743C71.1732 29.9743 67.0747 25.393 67.0747 19.7921C67.0747 14.1913 71.1734 9.60887 76.5731 9.60887ZM77.3619 13.526C73.8549 13.526 71.49 16.2669 71.49 19.7921C71.49 23.3163 73.8549 26.0589 77.3619 26.0589C80.8676 26.0589 83.2325 23.3163 83.2325 19.7921C83.2325 16.2669 80.8676 13.526 77.3619 13.526Z" fill="#77C159"/>
<path d="M92.1372 10.0008H96.472V13.4865C97.2203 11.2541 99.4275 9.80518 101.675 9.80518C102.225 9.80518 102.779 9.84474 103.37 9.96192V14.3871C102.619 14.1519 101.99 14.0347 101.203 14.0347C98.7194 14.0347 96.4722 16.1115 96.4722 20.0278V29.5828H93.5271C92.7604 29.5828 92.1374 28.9639 92.1374 28.2008V10.0008H92.1372Z" fill="#77C159"/>
<path d="M115.058 29.9743C109.226 29.9743 104.733 25.4695 104.733 19.7932C104.733 14.1141 109.226 9.60889 115.058 9.60889C120.892 9.60889 125.383 14.113 125.383 19.7932C125.383 25.4695 120.892 29.9743 115.058 29.9743ZM115.058 25.9811C118.526 25.9811 120.97 23.2774 120.97 19.7932C120.97 16.3082 118.526 13.6045 115.058 13.6045C111.551 13.6045 109.108 16.3082 109.108 19.7932C109.108 23.2774 111.551 25.9811 115.058 25.9811Z" fill="#77C159"/>
<path d="M131.063 5.73249C129.487 5.73249 128.147 4.4414 128.147 2.83379C128.147 1.26727 129.487 -0.0249023 131.063 -0.0249023C132.679 -0.0249023 133.94 1.26749 133.94 2.83379C133.94 4.4414 132.679 5.73249 131.063 5.73249ZM128.898 10.0003H133.231V29.5829H130.287C129.519 29.5829 128.898 28.9627 128.898 28.201V10.0003Z" fill="#77C159"/>
<path d="M146.292 9.60887C149.13 9.60887 151.495 11.0584 152.599 12.625V0.209961H156.933V29.5828H153.989C153.22 29.5828 152.599 28.965 152.599 28.2008V26.9606C151.495 28.5258 149.13 29.9743 146.292 29.9743C140.894 29.9743 136.795 25.393 136.795 19.7921C136.795 14.1913 140.894 9.60887 146.292 9.60887ZM147.08 13.526C143.575 13.526 141.21 16.2669 141.21 19.7921C141.21 23.3163 143.575 26.0589 147.08 26.0589C150.588 26.0589 152.953 23.3163 152.953 19.7921C152.953 16.2669 150.588 13.526 147.08 13.526Z" fill="#77C159"/>
<path opacity="0.8" d="M164.47 12.4919H160.228V9.8934H164.47V4.41797H167.243V9.8934H173.03V12.4919H167.243V23.8747C167.243 26.2764 168.314 27.2214 170.532 27.2214C171.325 27.2214 172.396 27.0636 173.03 26.7891V29.2697C172.117 29.6245 171.167 29.7821 170.096 29.7821C166.728 29.7821 164.47 27.8508 164.47 24.1093V12.4919Z" fill="white"/>
<path opacity="0.8" d="M195.579 9.89258L186.307 29.5852H184.127L174.853 9.89258H177.944L185.197 25.528L192.449 9.89258H195.579Z" fill="white"/>
</g>
<defs>
<clipPath id="clip0_1_11726">
<rect width="175" height="30" fill="white" transform="translate(20.6665)"/>
</clipPath>
</defs>
</svg>
