<svg width="86" height="34" viewBox="0 0 86 34" fill="none" xmlns="http://www.w3.org/2000/svg">
<g clip-path="url(#clip0_1_11719)">
<g opacity="0.8" clip-path="url(#clip1_1_11719)">
<path d="M40.6007 28.9695H38.3106V15.229H40.6007V28.9695ZM39.4556 12.9389C38.6541 12.9389 37.9671 12.2519 37.9671 11.4504C37.9671 10.6489 38.6541 9.96183 39.4556 9.96183C40.2572 9.96183 40.9442 10.6489 40.9442 11.4504C40.9442 12.2519 40.2572 12.9389 39.4556 12.9389ZM53.3106 29.313C47.2419 29.313 43.3488 24.9618 43.3488 18.0916C43.3488 11.2214 47.2419 6.87023 53.3106 6.87023C59.3793 6.87023 63.2724 11.2214 63.2724 18.0916C63.2724 24.9618 59.3793 29.313 53.3106 29.313ZM61.0969 18.0916C61.0969 12.3664 58.1198 8.70229 53.3106 8.70229C48.5014 8.70229 45.5243 12.3664 45.5243 18.0916C45.5243 23.8168 48.5014 27.3664 53.3106 27.3664C58.1198 27.3664 61.0969 23.8168 61.0969 18.0916ZM73.3488 29.313C68.7686 29.313 65.5625 26.7939 65.3335 23.0153H67.3946C67.6236 25.6489 70.0282 27.3664 73.4633 27.3664C76.7839 27.3664 79.074 25.5344 79.074 23.1298C79.074 21.0687 77.6999 19.9237 74.3793 19.1221L71.6312 18.4351C67.6236 17.4046 65.7915 15.687 65.7915 12.8244C65.7915 9.27481 68.9976 6.75572 73.2343 6.75572C77.4709 6.75572 80.5625 9.27481 80.677 12.7099H78.8449C78.7304 10.3053 76.5549 8.70229 73.4633 8.70229C70.4862 8.70229 68.1961 10.4198 68.1961 12.8244C68.1961 14.6565 69.5701 15.8015 72.7763 16.6031L75.1808 17.1756C79.532 18.3206 81.364 19.9237 81.364 23.0153C81.2495 26.7939 78.2724 29.313 73.3488 29.313ZM29.1503 23.3588C28.6923 24.3893 28.1198 25.4198 27.5472 26.2214C26.7457 27.4809 26.0587 28.2824 25.4862 28.7405C24.6847 29.542 23.7686 29.8855 22.8526 29.8855C22.1656 29.8855 21.364 29.6565 20.3335 29.313C19.4175 28.9695 18.5014 28.7405 17.6999 28.7405C16.8984 28.7405 15.9824 28.9695 14.9518 29.313C14.0358 29.6565 13.2343 29.8855 12.5472 29.8855C11.6312 29.8855 10.7152 29.542 9.79916 28.626C9.22664 28.1679 8.53962 27.2519 7.62359 25.9924C6.70756 24.7328 5.90603 23.1298 5.33351 21.4122C4.76099 19.6947 4.41748 17.8626 4.41748 16.145C4.41748 14.084 4.8755 12.3664 5.67702 10.9924C6.36405 9.84733 7.28008 8.9313 8.42511 8.24427C9.57015 7.55725 10.8297 7.21374 12.0892 7.21374C12.7763 7.21374 13.8068 7.44275 14.9518 7.90076C16.0969 8.35878 16.8984 8.58779 17.2419 8.58779C17.4709 8.58779 18.2724 8.35878 19.761 7.78626C21.135 7.32824 22.2801 7.09924 23.1961 7.21374C25.7152 7.44275 27.6618 8.35878 28.9213 10.1908C26.6312 11.5649 25.6007 13.5114 25.6007 15.916C25.6007 17.8626 26.2877 19.4656 27.6618 20.7252C28.2343 21.2977 28.9213 21.7557 29.7228 22.0992C29.4938 22.4427 29.2648 22.9008 29.1503 23.3588ZM23.3106 0.572519C23.3106 2.06107 22.7381 3.43511 21.7076 4.80916C20.448 6.29771 18.845 7.21374 17.1274 7.09924C17.1274 6.87023 17.1274 6.75572 17.1274 6.52672C17.1274 5.03817 17.6999 3.54962 18.845 2.29008C19.4175 1.60305 20.1045 1.14504 20.906 0.687023C21.7076 0.229008 22.5091 0 23.3106 0C23.3106 0.229008 23.3106 0.343511 23.3106 0.572519Z" fill="white"/>
</g>
</g>
<defs>
<clipPath id="clip0_1_11719">
<rect width="76.8321" height="34" fill="white" transform="translate(4.41748)"/>
</clipPath>
<clipPath id="clip1_1_11719">
<rect width="76.8321" height="30" fill="white" transform="translate(4.41748)"/>
</clipPath>
</defs>
</svg>
