<svg width="211" height="34" viewBox="0 0 211 34" fill="none" xmlns="http://www.w3.org/2000/svg">
<path opacity="0.8" d="M126.089 19.3283L131.364 29.2239H134.813L129.538 19.1343L126.089 19.3283Z" fill="white"/>
<path opacity="0.8" d="M136.441 9.04449H144.151V29.2236H147.397V9.04449H155.106V6.91016H136.441V9.04449Z" fill="white"/>
<path opacity="0.8" d="M63.1948 29.6119C68.064 29.6119 71.1072 27.4775 71.3101 24.179C71.513 20.8805 69.687 19.1342 64.615 17.1939C60.3545 15.6417 58.9343 14.2835 58.9343 12.3432C58.9343 10.2089 60.9631 8.85064 64.0064 8.85064C66.4409 8.85064 68.4697 9.2387 69.687 9.82079L70.7014 7.88049C68.8755 7.10437 66.4409 6.71631 63.3977 6.71631C58.5286 6.71631 55.6882 9.2387 55.6882 12.5372C55.6882 15.8357 57.717 17.582 62.3833 19.3283C66.6438 20.8805 67.8611 21.8507 67.8611 23.985C67.8611 26.1193 65.8323 27.6716 62.1804 27.4775C60.3545 27.4775 57.9199 26.7014 56.4998 25.9253L55.4854 27.8656C56.7026 28.4477 59.1372 29.6119 63.1948 29.6119Z" fill="white"/>
<g opacity="0.8">
<path d="M97.6909 7.10449H92.6189L86.1267 27.0896L79.6345 7.10449H74.5625V29.2239H76.9971V8.85076L83.6921 29.2239H87.9527L94.4448 8.85076V29.2239H94.8506L97.6909 21.6568V7.10449Z" fill="white"/>
</g>
<g opacity="0.8">
<path d="M132.582 8.4624C131.162 7.49225 129.133 6.91016 126.496 6.91016H118.178V20.4923L121.424 28.8356V9.04449H126.293C130.148 9.04449 131.365 10.7908 131.365 13.3132C131.365 16.0296 130.148 17.9699 125.684 17.9699H122.438V19.9102H127.713C131.974 19.9102 134.408 16.8057 134.408 13.5072C134.611 11.1788 133.8 9.43255 132.582 8.4624Z" fill="white"/>
</g>
<path opacity="0.8" d="M204 7.10449H200.551L193.653 25.9254L186.552 7.10449H182.9L191.219 29.2239H195.682L204 7.10449Z" fill="white"/>
<path opacity="0.8" d="M161.191 8.85076H169.104V29.2239H173.364V8.85076H181.277V7.10449H161.191V8.85076Z" fill="white"/>
<g opacity="0.8">
<path d="M35.4014 20.6865H39.8648V24.5671C39.0532 24.9552 37.4302 25.3432 35.8071 25.3432C30.938 25.3432 29.3149 23.0148 29.3149 18.1641C29.3149 13.5074 30.938 10.985 35.8071 10.985C38.4446 10.985 40.0676 11.7611 41.2849 13.3133L44.531 10.4029C42.5022 7.68646 38.8504 6.71631 35.6043 6.71631C28.0977 6.71631 24.04 10.5969 24.04 18.1641C24.04 25.7313 27.6919 29.6119 35.6043 29.6119C39.2561 29.6119 42.7051 28.6417 44.7339 27.4775V16.6119H35.4014V20.6865Z" fill="white"/>
<path d="M12.2749 6.91016H7V29.2236H23.4334V24.955H12.2749V6.91016Z" fill="white"/>
</g>
<path d="M110.876 14.8657L113.919 13.1194L110.47 4L108.441 8.4627L110.876 14.8657Z" fill="#1999D6"/>
<path d="M113.916 13.1191L110.873 14.8654L112.293 18.1639L116.757 20.6863L113.916 13.1191Z" fill="#30BEC2"/>
<path d="M108.641 20.8804L110.467 22.2386L108.641 23.4028L116.959 29.8058L115.539 26.1192L108.641 20.8804Z" fill="#97C742"/>
<path d="M108.639 20.8804L100.93 26.3132L99.5098 29.8058L108.639 23.4028L106.813 22.2386L108.639 20.8804Z" fill="#F68524"/>
<path d="M108.639 20.8804L106.813 22.2386L108.639 23.4028L110.465 22.2386L108.639 20.8804Z" fill="#9D7230"/>
<path d="M116.754 20.6865L112.291 18.1641L115.537 26.1193L120.203 29.8059L116.754 20.6865Z" fill="#71C596"/>
<path d="M115.542 26.1196L116.962 29.8062H120.208L115.542 26.1196Z" fill="#38B24B"/>
<path d="M104.178 18.9404L99.3086 21.8509L96.0625 29.8061L100.932 26.3136L104.178 18.9404Z" fill="#F15C2A"/>
<path d="M96.0625 29.806H99.5115L100.932 26.3135L96.0625 29.806Z" fill="#EF3B25"/>
<path d="M108.438 8.4627L106.612 4L103.163 12.7314L106.003 14.2836L108.438 8.4627Z" fill="#6E449B"/>
<path d="M103.165 12.7314L99.3105 21.8509L104.18 18.9404L106.006 14.2837L103.165 12.7314Z" fill="#ED174F"/>
<path d="M110.465 4H106.61L108.436 8.4627L110.465 4Z" fill="#3C2E46"/>
</svg>
