<svg width="215" height="34" viewBox="0 0 215 34" fill="none" xmlns="http://www.w3.org/2000/svg">
<g clip-path="url(#clip0_1_11738)">
<path d="M111.067 11.4873V23.4278L101.41 16.7492L111.067 11.4873Z" fill="#244A9A"/>
<path d="M91.8555 11.4873V23.4278L101.408 16.7492L91.8555 11.4873Z" fill="#95A948"/>
<path d="M101.409 -0.453125L88.9492 6.32664H101.409V-0.453125Z" fill="#FFDE14"/>
<path d="M101.41 -0.453125L113.87 6.32664H101.41V-0.453125Z" fill="#F0C3C0"/>
<path d="M101.407 16.749L89.0508 25.249H101.407V16.749Z" fill="#D3D80E"/>
<path d="M101.41 16.749L113.87 25.249H101.41V16.749Z" fill="#2DAFE6"/>
<path d="M89.0508 25.249H101.407V33.5466L89.0508 25.249Z" fill="#FBEF82"/>
<path d="M113.87 25.249H101.41V33.5466L113.87 25.249Z" fill="#AFDFF9"/>
<path d="M89.0508 6.32617H101.511V13.1059L89.0508 6.32617Z" fill="#F18825"/>
<path d="M113.87 6.32617H101.41V13.1059L113.87 6.32617Z" fill="#E94287"/>
<path opacity="0.8" d="M113.867 25.2488V6.32617L101.407 13.1059L89.0508 6.32617V25.2488L91.8542 27.1714V11.4869L101.407 16.7488L111.063 11.4869V27.1714L113.867 25.2488Z" fill="white"/>
<path opacity="0.8" d="M150.521 18.3682C151.56 17.9634 152.494 17.3563 153.221 16.4456C154.052 15.4337 154.467 14.1182 154.467 12.7015C154.467 11.7908 154.259 10.8801 153.948 10.1718C153.636 9.36226 153.117 8.75511 152.494 8.14797C151.871 7.64202 151.041 7.13607 150.106 6.8325C149.172 6.52893 148.133 6.42773 146.991 6.42773H138.996V27.273H141.8V9.15987H146.991C148.549 9.15987 149.691 9.46345 150.418 10.0706C151.144 10.6777 151.56 11.5884 151.56 12.7015C151.56 13.9158 151.144 14.7253 150.418 15.3325C149.587 15.9396 148.445 16.2432 146.991 16.2432H143.565V18.8742H147.718L151.664 27.1718H154.779L150.521 18.3682Z" fill="white"/>
<path opacity="0.8" d="M156.856 6.52881V9.15976H163.294V27.2729H166.098V9.15976H172.535V6.52881H156.856Z" fill="white"/>
<path opacity="0.8" d="M127.368 6.52881H124.98L116.777 27.2729H119.788L122.384 20.7967H130.172L132.768 27.2729H135.675L127.368 6.52881ZM123.319 18.3681L126.226 10.9812L129.133 18.3681H123.319Z" fill="white"/>
<path opacity="0.8" d="M84.7932 19.1777C84.4817 18.4694 84.0664 17.8622 83.5472 17.3563C83.0281 16.8503 82.4051 16.4456 81.6783 16.0408C80.9514 15.7372 80.1208 15.4337 79.2901 15.3325L75.4483 14.8265C75.033 14.7253 74.6177 14.7253 74.2023 14.523C73.8908 14.4218 73.5793 14.2194 73.2678 14.017C73.0602 13.8146 72.8525 13.511 72.6448 13.2075C72.541 12.9039 72.4372 12.4991 72.4372 11.9932C72.4372 11.4872 72.541 10.9813 72.7487 10.6777C72.9563 10.2729 73.2678 9.96938 73.5793 9.66581C73.9947 9.36223 74.5138 9.05867 75.033 8.85629C75.656 8.65391 76.279 8.6539 76.902 8.6539C77.7326 8.6539 78.5633 8.75509 79.1863 9.05866C79.8093 9.26104 80.3284 9.66581 80.7438 10.0706C81.0553 10.3741 81.2629 10.6777 81.3668 11.0825C81.4706 11.386 81.6783 11.7908 81.6783 12.2968L81.7821 12.8027H84.5856L84.4817 12.0944C84.3779 11.2849 84.2741 10.5765 83.9626 9.96938C83.6511 9.36224 83.2357 8.85629 82.8204 8.35033C82.1974 7.642 81.2629 7.03485 80.2246 6.63009C79.1863 6.22533 78.0441 6.02295 76.902 6.02295C75.8636 6.02295 74.9292 6.22533 73.9947 6.5289C73.0602 6.83247 72.2295 7.33843 71.5027 7.94557C70.9835 8.45152 70.4644 9.05866 70.049 9.66581C69.6337 10.3741 69.426 11.1837 69.426 12.0944C69.426 12.9039 69.5299 13.7134 69.8414 14.3206C70.1529 14.9277 70.5682 15.5349 71.0874 16.0408C71.6065 16.5468 72.2295 16.8503 72.8525 17.1539C73.4755 17.4575 74.2023 17.5587 75.033 17.6599L78.7709 18.1658C79.2901 18.267 79.8093 18.3682 80.2246 18.5706C80.6399 18.773 80.9514 18.9753 81.2629 19.2789C81.5744 19.5825 81.7821 19.886 81.8859 20.1896C81.9897 20.4932 82.0936 20.898 82.0936 21.3027C82.0936 21.8087 81.9898 22.3146 81.7821 22.6182C81.5744 23.023 81.3668 23.3265 81.0553 23.6301C80.5361 24.0349 80.0169 24.3384 79.2901 24.5408C78.5633 24.7432 77.7326 24.8444 76.902 24.8444C76.1751 24.8444 75.3445 24.7432 74.7215 24.4396C73.9947 24.2372 73.4755 23.8325 72.9563 23.4277C72.6448 23.1241 72.3333 22.7194 72.1257 22.2134C71.918 21.8087 71.7103 21.3027 71.7103 20.7968L71.6065 20.1896H68.6992L68.803 20.8979C68.9069 21.7075 69.1145 22.517 69.426 23.2253C69.7375 23.9337 70.2567 24.5408 70.7759 25.148C71.5027 25.9575 72.4372 26.4634 73.4755 26.8682C74.5138 27.273 75.656 27.4753 76.902 27.4753C78.148 27.4753 79.2901 27.273 80.3284 26.9694C81.3668 26.6658 82.3012 26.0587 83.0281 25.3503C83.5472 24.8444 83.9626 24.2372 84.2741 23.6301C84.5856 22.9218 84.7932 22.1122 84.7932 21.2015C85.2086 20.5944 85.1047 19.886 84.7932 19.1777Z" fill="white"/>
<path opacity="0.8" d="M200.152 27.3742H202.021L210.223 6.42773H208.043L201.086 24.4396L193.922 6.42773H178.243V8.35036H184.992V27.3742H186.965V8.35036H192.572L200.152 27.3742Z" fill="white"/>
<path opacity="0.8" d="M111.067 11.4869V27.1714L113.87 25.2488V6.32617L101.41 13.1059V16.7488L111.067 11.4869Z" fill="white"/>
<path opacity="0.8" d="M5.98714 16.243C4.63732 15.8382 4.32583 14.7251 4.32583 13.8144V13.5108C4.32583 11.7906 5.26032 10.8799 7.23313 10.8799H8.16762C9.72511 10.8799 10.6596 11.487 10.6596 13.1061C10.6596 13.5108 10.4519 13.8144 9.93277 13.8144C9.41361 13.8144 9.20594 13.5108 9.20594 13.1061C9.20594 12.4989 8.79062 12.1954 8.16762 12.1954H7.23313C6.19481 12.1954 5.67565 12.6001 5.67565 13.5108V13.8144C5.67565 14.4215 6.09098 14.8263 6.50631 14.9275L9.20594 15.9394C10.3481 16.3442 10.9711 17.1537 10.9711 18.4692V18.9751C10.9711 20.6954 10.0366 21.7073 8.06379 21.7073H6.61014C5.05265 21.7073 4.11816 21.1001 4.11816 19.4811C4.11816 19.0763 4.32583 18.7727 4.84499 18.7727C5.36415 18.7727 5.57182 19.0763 5.57182 19.4811C5.57182 20.0882 5.98714 20.3918 6.61014 20.3918H8.16762C9.20594 20.3918 9.72511 19.8858 9.72511 18.9751V18.4692C9.72511 17.862 9.41361 17.4573 8.99828 17.2549L5.98714 16.243Z" fill="white"/>
<path opacity="0.8" d="M16.057 13.8145C17.6145 13.8145 18.549 14.7252 18.549 16.1418V20.8978C18.549 21.3025 18.3413 21.6061 17.8222 21.6061H15.0187C13.565 21.6061 12.7344 20.999 12.7344 19.5823V18.4692C12.7344 17.0526 13.6689 16.4454 15.0187 16.4454H17.1992V16.1418C17.1992 15.4335 16.7838 15.1299 16.1608 15.1299H14.188C13.7727 15.1299 13.4612 14.9276 13.4612 14.5228C13.4612 14.118 13.7727 13.9156 14.188 13.9156H16.057V13.8145ZM17.0953 20.2906V17.6597H14.9149C14.2919 17.6597 13.9804 17.9633 13.9804 18.4692V19.5823C13.9804 19.9871 14.2919 20.3918 14.9149 20.3918H17.0953V20.2906Z" fill="white"/>
<path opacity="0.8" d="M28.1009 16.5466C28.1009 15.6359 27.6856 15.1299 26.6473 15.1299H25.8166V21.1002C25.8166 21.5049 25.6089 21.8085 25.0898 21.8085C24.5706 21.8085 24.363 21.5049 24.363 21.1002V15.1299H22.0787V21.1002C22.0787 21.5049 21.871 21.8085 21.3518 21.8085C20.8327 21.8085 20.625 21.5049 20.625 21.1002V14.5228C20.625 14.118 20.8327 13.8145 21.3518 13.8145H26.6473C28.5163 13.8145 29.4507 14.8264 29.4507 16.5466V21.1002C29.4507 21.5049 29.2431 21.8085 28.7239 21.8085C28.2048 21.8085 27.9971 21.5049 27.9971 21.1002V16.5466H28.1009Z" fill="white"/>
<path opacity="0.8" d="M33.714 21.7075C32.2603 21.7075 31.4297 21.2016 31.4297 19.8861C31.4297 19.4813 31.6373 19.1778 32.1565 19.1778C32.6757 19.1778 32.7795 19.4813 32.8833 19.8861C32.8833 20.1897 33.1948 20.4933 33.8178 20.4933H35.0638C35.7906 20.4933 35.9983 20.0885 35.9983 19.6837V19.1778C35.9983 18.773 35.7906 18.6718 35.4791 18.4695L33.091 17.8623C32.1565 17.5587 31.7412 16.9516 31.7412 16.0409V15.6361C31.7412 14.2194 32.5718 13.6123 34.0255 13.6123H34.8561C36.3098 13.6123 37.1405 14.1183 37.1405 15.4337C37.1405 15.8385 37.0366 16.1421 36.4136 16.1421C35.8945 16.1421 35.7906 15.8385 35.6868 15.4337C35.6868 15.1302 35.3753 14.8266 34.8561 14.8266H34.0255C33.2987 14.8266 33.091 15.2314 33.091 15.6361V16.0409C33.091 16.3444 33.2987 16.5468 33.6102 16.7492L35.9983 17.3563C36.9328 17.6599 37.452 18.1659 37.452 19.1778V19.6837C37.452 21.1004 36.6213 21.7075 35.1676 21.7075H33.714Z" fill="white"/>
<path opacity="0.8" d="M40.4608 18.8742C40.4608 19.7849 40.8762 20.2909 41.9145 20.2909H43.7835V14.3206C43.7835 13.9159 43.9911 13.6123 44.5103 13.6123C45.0294 13.6123 45.2371 13.9159 45.2371 14.3206V20.898C45.2371 21.3028 45.0294 21.6064 44.5103 21.6064H42.0183C40.0455 21.6064 39.2148 20.5944 39.2148 18.8742V14.3206C39.2148 13.9159 39.4225 13.6123 39.9417 13.6123C40.4608 13.6123 40.6685 13.9159 40.6685 14.3206V18.8742H40.4608Z" fill="white"/>
<path opacity="0.8" d="M52.0888 16.5466C52.0888 15.6359 51.6735 15.1299 50.6351 15.1299H48.7661V21.1002C48.7661 21.5049 48.5585 21.8085 48.0393 21.8085C47.5202 21.8085 47.3125 21.5049 47.3125 21.1002V14.5228C47.3125 14.118 47.5202 13.8145 48.0393 13.8145H50.5313C52.4003 13.8145 53.3348 14.8264 53.3348 16.5466V21.1002C53.3348 21.5049 53.1271 21.8085 52.6079 21.8085C52.0888 21.8085 51.8811 21.5049 51.8811 21.1002V16.5466H52.0888Z" fill="white"/>
<path opacity="0.8" d="M61.5395 22.416C61.5395 24.0351 60.605 25.3505 58.6322 25.3505H56.9709C56.6594 25.3505 56.2441 25.1482 56.2441 24.7434C56.2441 24.3386 56.5556 24.1363 56.9709 24.1363H58.7361C59.7744 24.1363 60.2935 23.4279 60.2935 22.5172V21.7077H58.4246C56.5556 21.7077 55.6211 20.6958 55.6211 18.9755V16.8505C55.6211 15.1303 56.5556 13.916 58.5284 13.916H61.0204C61.5395 13.916 61.7472 14.2196 61.7472 14.6243V22.416H61.5395ZM58.4246 15.0291C57.3862 15.0291 56.9709 15.7374 56.9709 16.6482V18.7732C56.9709 19.6839 57.3862 20.1898 58.4246 20.1898H60.2935V15.0291H58.4246Z" fill="white"/>
</g>
<defs>
<clipPath id="clip0_1_11738">
<rect width="207" height="34" fill="white" transform="translate(4)"/>
</clipPath>
</defs>
</svg>
